{
	"asset":{
		"generator":"Khronos glTF Blender I/O v4.1.62",
		"version":"2.0"
	},
	"scene":0,
	"scenes":[
		{
			"name":"Scene",
			"nodes":[
				0
			]
		}
	],
	"nodes":[
		{
			"mesh":0,
			"name":"bat",
			"rotation":[
				-0.011989069171249866,
				-0.8331780433654785,
				-0.03391464054584503,
				0.5518337488174438
			],
			"translation":[
				0.12612882256507874,
				0.17487052083015442,
				-0.6892596483230591
			]
		}
	],
	"materials":[
		{
			"doubleSided":true,
			"name":"billede",
			"pbrMetallicRoughness":{
				"baseColorTexture":{
					"index":0
				},
				"metallicFactor":0.20000000298023224,
				"roughnessFactor":0.75
			}
		},
		{
			"doubleSided":true,
			"name":"greb",
			"normalTexture":{
				"index":1
			},
			"pbrMetallicRoughness":{
				"baseColorTexture":{
					"index":2
				},
				"metallicFactor":0,
				"metallicRoughnessTexture":{
					"index":3
				}
			}
		},
		{
			"doubleSided":true,
			"name":"hul",
			"pbrMetallicRoughness":{
				"baseColorFactor":[
					0.4793357253074646,
					0.4793357253074646,
					0.4793357253074646,
					1
				],
				"metallicFactor":0,
				"roughnessFactor":0.29015544056892395
			}
		},
		{
			"doubleSided":true,
			"name":"Material",
			"pbrMetallicRoughness":{
				"baseColorFactor":[
					0,
					0,
					0,
					1
				],
				"metallicFactor":0.9430051445960999,
				"roughnessFactor":0.23575130105018616
			}
		},
		{
			"doubleSided":true,
			"name":"billede2",
			"pbrMetallicRoughness":{
				"baseColorTexture":{
					"index":4
				},
				"metallicFactor":0.20000000298023224,
				"roughnessFactor":0.75
			}
		}
	],
	"meshes":[
		{
			"name":"Plane.003",
			"primitives":[
				{
					"attributes":{
						"POSITION":0,
						"NORMAL":1,
						"TEXCOORD_0":2
					},
					"indices":3,
					"material":0
				},
				{
					"attributes":{
						"POSITION":4,
						"NORMAL":5,
						"TEXCOORD_0":6
					},
					"indices":7,
					"material":1
				},
				{
					"attributes":{
						"POSITION":8,
						"NORMAL":9,
						"TEXCOORD_0":10
					},
					"indices":11,
					"material":2
				},
				{
					"attributes":{
						"POSITION":12,
						"NORMAL":13,
						"TEXCOORD_0":14
					},
					"indices":15,
					"material":3
				},
				{
					"attributes":{
						"POSITION":16,
						"NORMAL":17,
						"TEXCOORD_0":18
					},
					"indices":19,
					"material":4
				}
			]
		}
	],
	"textures":[
		{
			"sampler":0,
			"source":0
		},
		{
			"sampler":0,
			"source":1
		},
		{
			"sampler":0,
			"source":2
		},
		{
			"sampler":0,
			"source":3
		},
		{
			"sampler":0,
			"source":0
		}
	],
	"images":[
		{
			"mimeType":"image/png",
			"name":"FACE HULFRI",
			"uri":"FACE%20HULFRI.png"
		},
		{
			"mimeType":"image/png",
			"name":"FabricLeatherCowhide001_BUMP16_2K",
			"uri":"FabricLeatherCowhide001_BUMP16_2K.png"
		},
		{
			"mimeType":"image/jpeg",
			"name":"FabricLeatherCowhide001_COL_VAR1_2K",
			"uri":"FabricLeatherCowhide001_COL_VAR1_2K.jpg"
		},
		{
			"mimeType":"image/png",
			"name":"FabricLeatherCowhide001_GLOSS_2K",
			"uri":"FabricLeatherCowhide001_GLOSS_2K.png"
		}
	],
	"accessors":[
		{
			"bufferView":0,
			"componentType":5126,
			"count":820,
			"max":[
				-0.21536004543304443,
				0.01759454794228077,
				0.13499978184700012
			],
			"min":[
				-0.48840758204460144,
				0.007026247214525938,
				-0.13500013947486877
			],
			"type":"VEC3"
		},
		{
			"bufferView":1,
			"componentType":5126,
			"count":820,
			"type":"VEC3"
		},
		{
			"bufferView":2,
			"componentType":5126,
			"count":820,
			"type":"VEC2"
		},
		{
			"bufferView":3,
			"componentType":5123,
			"count":1614,
			"type":"SCALAR"
		},
		{
			"bufferView":4,
			"componentType":5126,
			"count":858,
			"max":[
				0,
				0.015948137268424034,
				0.02542193979024887
			],
			"min":[
				-0.15476037561893463,
				-0.015948133543133736,
				-0.02542193792760372
			],
			"type":"VEC3"
		},
		{
			"bufferView":5,
			"componentType":5126,
			"count":858,
			"type":"VEC3"
		},
		{
			"bufferView":6,
			"componentType":5126,
			"count":858,
			"type":"VEC2"
		},
		{
			"bufferView":7,
			"componentType":5123,
			"count":1308,
			"type":"SCALAR"
		},
		{
			"bufferView":8,
			"componentType":5126,
			"count":2496,
			"max":[
				-0.28295448422431946,
				0.01759454421699047,
				0.08666255325078964
			],
			"min":[
				-0.4301109313964844,
				-0.017594540491700172,
				-0.0858360305428505
			],
			"type":"VEC3"
		},
		{
			"bufferView":9,
			"componentType":5126,
			"count":2496,
			"type":"VEC3"
		},
		{
			"bufferView":10,
			"componentType":5126,
			"count":2496,
			"type":"VEC2"
		},
		{
			"bufferView":11,
			"componentType":5123,
			"count":3744,
			"type":"SCALAR"
		},
		{
			"bufferView":12,
			"componentType":5126,
			"count":388,
			"max":[
				-0.14725437760353088,
				0.01759454794228077,
				0.13499978184700012
			],
			"min":[
				-0.48840758204460144,
				-0.01759454421699047,
				-0.13500013947486877
			],
			"type":"VEC3"
		},
		{
			"bufferView":13,
			"componentType":5126,
			"count":388,
			"type":"VEC3"
		},
		{
			"bufferView":14,
			"componentType":5126,
			"count":388,
			"type":"VEC2"
		},
		{
			"bufferView":15,
			"componentType":5123,
			"count":600,
			"type":"SCALAR"
		},
		{
			"bufferView":16,
			"componentType":5126,
			"count":821,
			"max":[
				-0.21536004543304443,
				-0.00702624348923564,
				0.13499978184700012
			],
			"min":[
				-0.48840758204460144,
				-0.01759454421699047,
				-0.13500013947486877
			],
			"type":"VEC3"
		},
		{
			"bufferView":17,
			"componentType":5126,
			"count":821,
			"type":"VEC3"
		},
		{
			"bufferView":18,
			"componentType":5126,
			"count":821,
			"type":"VEC2"
		},
		{
			"bufferView":19,
			"componentType":5123,
			"count":1614,
			"type":"SCALAR"
		}
	],
	"bufferViews":[
		{
			"buffer":0,
			"byteLength":9840,
			"byteOffset":0,
			"target":34962
		},
		{
			"buffer":0,
			"byteLength":9840,
			"byteOffset":9840,
			"target":34962
		},
		{
			"buffer":0,
			"byteLength":6560,
			"byteOffset":19680,
			"target":34962
		},
		{
			"buffer":0,
			"byteLength":3228,
			"byteOffset":26240,
			"target":34963
		},
		{
			"buffer":0,
			"byteLength":10296,
			"byteOffset":29468,
			"target":34962
		},
		{
			"buffer":0,
			"byteLength":10296,
			"byteOffset":39764,
			"target":34962
		},
		{
			"buffer":0,
			"byteLength":6864,
			"byteOffset":50060,
			"target":34962
		},
		{
			"buffer":0,
			"byteLength":2616,
			"byteOffset":56924,
			"target":34963
		},
		{
			"buffer":0,
			"byteLength":29952,
			"byteOffset":59540,
			"target":34962
		},
		{
			"buffer":0,
			"byteLength":29952,
			"byteOffset":89492,
			"target":34962
		},
		{
			"buffer":0,
			"byteLength":19968,
			"byteOffset":119444,
			"target":34962
		},
		{
			"buffer":0,
			"byteLength":7488,
			"byteOffset":139412,
			"target":34963
		},
		{
			"buffer":0,
			"byteLength":4656,
			"byteOffset":146900,
			"target":34962
		},
		{
			"buffer":0,
			"byteLength":4656,
			"byteOffset":151556,
			"target":34962
		},
		{
			"buffer":0,
			"byteLength":3104,
			"byteOffset":156212,
			"target":34962
		},
		{
			"buffer":0,
			"byteLength":1200,
			"byteOffset":159316,
			"target":34963
		},
		{
			"buffer":0,
			"byteLength":9852,
			"byteOffset":160516,
			"target":34962
		},
		{
			"buffer":0,
			"byteLength":9852,
			"byteOffset":170368,
			"target":34962
		},
		{
			"buffer":0,
			"byteLength":6568,
			"byteOffset":180220,
			"target":34962
		},
		{
			"buffer":0,
			"byteLength":3228,
			"byteOffset":186788,
			"target":34963
		}
	],
	"samplers":[
		{
			"magFilter":9729,
			"minFilter":9987
		}
	],
	"buffers":[
		{
			"byteLength":190016,
			"uri":"bat.bin"
		}
	]
}
