<svg fill="none" height="65" viewBox="0 0 194 65" width="194" xmlns="http://www.w3.org/2000/svg"><path d="m30 43-12.9241 21.5139c-.0909.1497-.1547.3143-.1887.4861h-15.05463c-1.250184 0-2.04671-1.0126-1.7817001-2.2616l3.3897301-15.9047c.17798.0292.35953.0292.53751 0z" fill="#e84b4a"/><path d="m56 0c-.3316.304398-.6186.65293-.8527 1.03554l-20.83 34.26446-30.3173 7.7 8.7681-40.76324c.2652-1.23525 1.4985-2.23676 2.7453-2.23676z" fill="#e84b4a"/><path d="m69 26.5987-28 7.4013 16.6429-25z" fill="#e84b4a"/><path d="m89.9404 2.2464-5.159 23.7536c-.1032-.1487-.2167-.2901-.3399-.4234l-23.4415-25.5766h27.1423c1.267 0 2.0758 1.00583 1.8057 2.2464" fill="#e84b4a"/><path d="m83 34-6.0637 28.7527c-.2612 1.2419-1.4758 2.2473-2.7036 2.2473h-54.2327l15.38-22.6369 43.8141-6.5159h.0163c1.4127-.2305 2.7278-.8721 3.7837-1.8457" fill="#e84b4a"/><g fill="#000"><path d="m102.3 6.04492h8.743c6.326 0 9.514 3.81592 8.125 10.21038l-.566 2.6295c-1.388 6.3945-4.367 8.9222-10.697 8.9222h-3.657l-3.033 14.3359h-6.5775zm6.275 16.03768c2.16 0 3.034-.9288 3.548-3.5074l.617-2.994c.515-2.4758-.566-3.816-2.726-3.816h-2.365l-2.211 10.3174z"/><path d="m134.598 6.04492-.977 36.09798h-6.326l.36-6.808h-7.251l-2.52 6.808h-6.275l14.297-36.09798zm-6.634 23.72138.925-17.1721-6.377 17.1721z"/><path d="m142.519 6.04492h9.051c5.348 0 8.43 2.88714 8.43 7.52898-.006.9022-.108 1.8012-.305 2.6814l-3.6 16.9665c-1.337 6.2386-4.367 8.9211-10.697 8.9211h-10.542zm3.548 30.37358c2.161 0 2.983-.8768 3.549-3.5063l3.656-17.327c.096-.4059.148-.8212.155-1.2383 0-1.7527-1.08-2.5776-2.88-2.5776h-2.675l-5.245 24.6451z"/><path d="m164.274 6.04492h17.538l-1.235 5.72438h-10.952l-1.902 8.9211h8.691l-1.183 5.7244h-8.694l-2.16 10.0037h10.954l-1.182 5.7244h-17.537z"/><path d="m183.458 6.04492h6.581l-6.48 30.37358h10.441l-1.183 5.7244h-17.022z"/><path d="m89.9452 59.7541c.0031-.3879.0477-.7744.133-1.1528l.0884-.3992h2.6305l-.1331.7546c-.0287.1607-.0433.3236-.0437.4868 0 .7974.5079 1.2221 1.3264 1.2221 1.2594 0 1.7266-1.0184 1.7266-2.0368 0-.9084-.2427-1.3524-1.7266-2.7262-1.5478-1.4411-2.2546-2.5705-2.2546-4.1897 0-2.7039 1.4807-4.5879 4.421-4.5879 2.1876 0 3.8238 1.0418 3.8238 3.3464-.0049.432-.0494.8625-.133 1.2863h-2.6742c.0842-.3564.1359-.7198.1544-1.0856 0-.8433-.6185-1.1315-1.2817-1.1315-1.0837 0-1.5478.9095-1.5478 1.8627 0 .8636.1767 1.33 1.7021 2.77 1.5692 1.4584 2.273 2.5664 2.273 4.1184 0 2.7497-1.5234 4.7865-4.5317 4.7865-2.1399 0-3.9528-1.0184-3.9528-3.3241z"/><path d="m101.528 47.3418h2.83l-1.348 6.2947h2.851l1.349-6.2947h2.807l-3.294 15.5152h-2.829l1.442-6.7611h-2.83l-1.437 6.7611h-2.8344z"/><path d="m108.47 59.6657c.003-.3954.047-.7893.133-1.1752l1.635-7.6461c.508-2.3943 2.012-3.7243 4.487-3.7243 2.255 0 3.98 1.108 3.98 3.4137-.003.395-.048.7886-.133 1.1742l-1.636 7.6685c-.507 2.3728-2.011 3.7018-4.487 3.7018-2.34 0-3.979-1.1742-3.979-3.4126zm5.682-.4878 1.678-7.8681c.041-.1748.063-.3533.067-.5326 0-.7974-.531-1.1966-1.326-1.1966-.862 0-1.349.4878-1.548 1.44l-1.68 7.8691c-.039.1746-.061.3526-.066.5316 0 .776.487 1.1966 1.304 1.1966.863 0 1.371-.4868 1.571-1.44z"/><path d="m120.452 47.3418h3.757c2.719 0 4.089 1.6396 3.493 4.3883l-.244 1.1304c-.597 2.7496-1.878 3.8342-4.597 3.8342h-1.569l-1.305 6.1623h-2.829zm2.696 6.8925c.928 0 1.304-.3982 1.524-1.5062l.265-1.2863c.22-1.0632-.244-1.6396-1.172-1.6396h-1.016l-.951 4.4321z"/><path d="m129.316 47.3418h3.758c2.718 0 4.088 1.6396 3.492 4.3883l-.243 1.1304c-.598 2.7496-1.879 3.8342-4.598 3.8342h-1.569l-1.304 6.1623h-2.83zm2.696 6.8925c.929 0 1.304-.3982 1.524-1.5062l.265-1.2863c.22-1.0632-.244-1.6396-1.172-1.6396h-1.016l-.951 4.4321z"/><path d="m138.18 47.3418h7.538l-.53 2.4574h-4.711l-.813 3.8373h3.737l-.508 2.4594h-3.737l-.928 4.3007h4.708l-.507 2.4604h-7.538z"/><path d="m146.426 47.3418h3.381l.819 9.1319 1.967-9.1319h2.497l-3.292 15.5152h-2.764l-1.016-11.1931-2.387 11.1931h-2.498z"/></g></svg>