<svg width="26" height="28" viewBox="0 0 26 28" fill="none" xmlns="http://www.w3.org/2000/svg">
<path d="M1.08337 1.1665H5.41671L8.32004 16.7882C8.4191 17.3253 8.69044 17.8078 9.08655 18.1512C9.48266 18.4946 9.9783 18.677 10.4867 18.6665H21.0167C21.5251 18.677 22.0208 18.4946 22.4169 18.1512C22.813 17.8078 23.0843 17.3253 23.1834 16.7882L24.9167 6.99984H6.50004M10.8334 24.4998C10.8334 25.1442 10.3483 25.6665 9.75004 25.6665C9.15173 25.6665 8.66671 25.1442 8.66671 24.4998C8.66671 23.8555 9.15173 23.3332 9.75004 23.3332C10.3483 23.3332 10.8334 23.8555 10.8334 24.4998ZM22.75 24.4998C22.75 25.1442 22.265 25.6665 21.6667 25.6665C21.0684 25.6665 20.5834 25.1442 20.5834 24.4998C20.5834 23.8555 21.0684 23.3332 21.6667 23.3332C22.265 23.3332 22.75 23.8555 22.75 24.4998Z" stroke="currentColor" stroke-width="2" stroke-linecap="round" stroke-linejoin="round" />
</svg>
