<svg width="24" height="24" viewBox="0 0 36 27" fill="none" xmlns="http://www.w3.org/2000/svg">
<path d="M22.4103 0C22.2783 0.122495 22.1641 0.262751 22.0709 0.41672L13.7802 14.2053L1.71338 17.304L5.20323 0.900112C5.30879 0.403025 5.79966 0 6.29591 0L22.4103 0Z" fill="currentColor"/>
<path d="M27.4994 10.6587L16.3027 13.5717L22.9579 3.73221L27.4994 10.6587Z" fill="currentColor"/>
<path d="M35.9581 0.908764L33.9059 10.5181C33.8648 10.4579 33.8197 10.4007 33.7706 10.3468L24.4458 0H35.2428C35.7468 0 36.0685 0.406901 35.9611 0.908764" fill="currentColor"/>
<path d="M33.2674 13.5717L30.8508 25.2155C30.7467 25.7184 30.2626 26.1256 29.7733 26.1256H8.15967L14.2891 16.9585L31.7506 14.3198H31.7571C32.3201 14.2264 32.8442 13.9666 33.265 13.5724" fill="currentColor"/>
<path d="M11.8753 17.1315L6.75936 25.7582C6.72338 25.8183 6.69813 25.8843 6.68467 25.9532H0.725409C0.230533 25.9532 -0.0847657 25.5471 0.0201365 25.0463L1.36193 18.6688C1.43239 18.6805 1.50425 18.6805 1.5747 18.6688L11.8753 17.1315Z" fill="currentColor"/>
</svg>
